{
	"patcher" : 	{
		"fileversion" : 1,
		"rect" : [ 24.0, 44.0, 1347.0, 817.0 ],
		"bglocked" : 0,
		"defrect" : [ 24.0, 44.0, 1347.0, 817.0 ],
		"openrect" : [ 0.0, 0.0, 0.0, 0.0 ],
		"openinpresentation" : 0,
		"default_fontsize" : 12.0,
		"default_fontface" : 0,
		"default_fontname" : "Arial",
		"gridonopen" : 0,
		"gridsize" : [ 15.0, 15.0 ],
		"gridsnaponopen" : 0,
		"toolbarvisible" : 1,
		"boxanimatetime" : 200,
		"imprint" : 0,
		"enablehscroll" : 1,
		"enablevscroll" : 1,
		"devicewidth" : 0.0,
		"boxes" : [ 			{
				"box" : 				{
					"maxclass" : "comment",
					"text" : "double click the object to see the global transport window",
					"linecount" : 2,
					"numinlets" : 1,
					"id" : "obj-59",
					"fontname" : "Arial",
					"numoutlets" : 0,
					"patching_rect" : [ 1098.0, 338.0, 166.0, 34.0 ],
					"fontsize" : 12.0
				}

			}
, 			{
				"box" : 				{
					"maxclass" : "comment",
					"text" : "joel rich 2010 creative commmons",
					"numinlets" : 1,
					"id" : "obj-57",
					"fontname" : "Arial",
					"numoutlets" : 0,
					"patching_rect" : [ 301.0, 791.0, 219.0, 20.0 ],
					"fontsize" : 12.0
				}

			}
, 			{
				"box" : 				{
					"maxclass" : "comment",
					"text" : "(in futura)",
					"numinlets" : 1,
					"id" : "obj-55",
					"fontname" : "Arial",
					"numoutlets" : 0,
					"patching_rect" : [ 871.0, 752.0, 150.0, 20.0 ],
					"fontsize" : 12.0
				}

			}
, 			{
				"box" : 				{
					"maxclass" : "flonum",
					"numinlets" : 1,
					"id" : "obj-53",
					"fontname" : "Arial",
					"numoutlets" : 2,
					"patching_rect" : [ 246.0, 226.0, 50.0, 20.0 ],
					"outlettype" : [ "float", "bang" ],
					"fontsize" : 12.0
				}

			}
, 			{
				"box" : 				{
					"maxclass" : "message",
					"text" : "8nt",
					"numinlets" : 2,
					"id" : "obj-23",
					"fontname" : "Arial",
					"numoutlets" : 1,
					"patching_rect" : [ 1121.0, 102.428345, 121.5, 67.0 ],
					"outlettype" : [ "" ],
					"fontsize" : 54.548283
				}

			}
, 			{
				"box" : 				{
					"maxclass" : "message",
					"text" : "8nd",
					"numinlets" : 2,
					"id" : "obj-24",
					"fontname" : "Arial",
					"numoutlets" : 1,
					"patching_rect" : [ 988.0, 102.428345, 121.5, 67.0 ],
					"outlettype" : [ "" ],
					"fontsize" : 54.548283
				}

			}
, 			{
				"box" : 				{
					"maxclass" : "message",
					"text" : "4nt",
					"numinlets" : 2,
					"id" : "obj-25",
					"fontname" : "Arial",
					"numoutlets" : 1,
					"patching_rect" : [ 1120.0, 22.428345, 121.5, 67.0 ],
					"outlettype" : [ "" ],
					"fontsize" : 54.548283
				}

			}
, 			{
				"box" : 				{
					"maxclass" : "message",
					"text" : "4nd",
					"numinlets" : 2,
					"id" : "obj-26",
					"fontname" : "Arial",
					"numoutlets" : 1,
					"patching_rect" : [ 987.0, 22.428345, 121.5, 67.0 ],
					"outlettype" : [ "" ],
					"fontsize" : 54.548283
				}

			}
, 			{
				"box" : 				{
					"maxclass" : "message",
					"text" : "16n",
					"numinlets" : 2,
					"id" : "obj-21",
					"fontname" : "Arial",
					"numoutlets" : 1,
					"patching_rect" : [ 805.0, 73.428345, 121.5, 67.0 ],
					"outlettype" : [ "" ],
					"fontsize" : 54.548283
				}

			}
, 			{
				"box" : 				{
					"maxclass" : "message",
					"text" : "8n",
					"numinlets" : 2,
					"id" : "obj-22",
					"fontname" : "Arial",
					"numoutlets" : 1,
					"patching_rect" : [ 671.0, 73.428345, 121.5, 67.0 ],
					"outlettype" : [ "" ],
					"fontsize" : 54.548283
				}

			}
, 			{
				"box" : 				{
					"maxclass" : "message",
					"text" : "4n",
					"numinlets" : 2,
					"id" : "obj-19",
					"fontname" : "Arial",
					"numoutlets" : 1,
					"patching_rect" : [ 536.0, 73.428345, 121.5, 67.0 ],
					"outlettype" : [ "" ],
					"fontsize" : 54.548283
				}

			}
, 			{
				"box" : 				{
					"maxclass" : "message",
					"text" : "1n",
					"numinlets" : 2,
					"id" : "obj-18",
					"fontname" : "Arial",
					"numoutlets" : 1,
					"patching_rect" : [ 403.0, 73.428345, 121.5, 67.0 ],
					"outlettype" : [ "" ],
					"fontsize" : 54.548283
				}

			}
, 			{
				"box" : 				{
					"maxclass" : "newobj",
					"text" : "translate notevalues ms",
					"numinlets" : 1,
					"id" : "obj-16",
					"fontname" : "Arial",
					"numoutlets" : 1,
					"patching_rect" : [ 483.0, 358.0, 137.0, 20.0 ],
					"outlettype" : [ "" ],
					"fontsize" : 12.0
				}

			}
, 			{
				"box" : 				{
					"maxclass" : "newobj",
					"text" : "*~ 0.6",
					"numinlets" : 2,
					"id" : "obj-50",
					"fontname" : "Arial",
					"numoutlets" : 1,
					"patching_rect" : [ 205.0, 297.0, 42.0, 20.0 ],
					"outlettype" : [ "signal" ],
					"fontsize" : 12.0
				}

			}
, 			{
				"box" : 				{
					"maxclass" : "newobj",
					"text" : "tapout~",
					"numinlets" : 1,
					"id" : "obj-49",
					"fontname" : "Arial",
					"numoutlets" : 1,
					"patching_rect" : [ 306.0, 357.0, 51.0, 20.0 ],
					"outlettype" : [ "signal" ],
					"fontsize" : 12.0
				}

			}
, 			{
				"box" : 				{
					"maxclass" : "newobj",
					"text" : "tapin~ 1000",
					"numinlets" : 1,
					"id" : "obj-48",
					"fontname" : "Arial",
					"numoutlets" : 1,
					"patching_rect" : [ 307.0, 306.0, 74.0, 20.0 ],
					"outlettype" : [ "tapconnect" ],
					"fontsize" : 12.0
				}

			}
, 			{
				"box" : 				{
					"maxclass" : "ezdac~",
					"numinlets" : 2,
					"id" : "obj-47",
					"numoutlets" : 0,
					"patching_rect" : [ 313.0, 502.0, 45.0, 45.0 ]
				}

			}
, 			{
				"box" : 				{
					"maxclass" : "ezadc~",
					"numinlets" : 1,
					"id" : "obj-46",
					"numoutlets" : 2,
					"patching_rect" : [ 306.0, 135.0, 45.0, 45.0 ],
					"outlettype" : [ "signal", "signal" ]
				}

			}
, 			{
				"box" : 				{
					"maxclass" : "toggle",
					"numinlets" : 1,
					"id" : "obj-45",
					"numoutlets" : 1,
					"patching_rect" : [ 971.0, 220.0, 101.0, 101.0 ],
					"outlettype" : [ "int" ]
				}

			}
, 			{
				"box" : 				{
					"maxclass" : "newobj",
					"text" : "transport",
					"numinlets" : 2,
					"id" : "obj-44",
					"fontname" : "Arial",
					"numoutlets" : 9,
					"patching_rect" : [ 971.0, 340.0, 127.0, 20.0 ],
					"outlettype" : [ "int", "int", "float", "float", "float", "", "int", "float", "" ],
					"fontsize" : 12.0
				}

			}
, 			{
				"box" : 				{
					"maxclass" : "comment",
					"text" : "TIME KEEPS ON TICKING TICKING TICKING",
					"linecount" : 2,
					"numinlets" : 1,
					"id" : "obj-2",
					"fontname" : "Futura Std Medium",
					"numoutlets" : 0,
					"patching_rect" : [ 286.0, 626.0, 802.0, 179.0 ],
					"fontsize" : 72.0
				}

			}
 ],
		"lines" : [ 			{
				"patchline" : 				{
					"source" : [ "obj-53", 0 ],
					"destination" : [ "obj-50", 1 ],
					"hidden" : 0,
					"midpoints" : [  ]
				}

			}
, 			{
				"patchline" : 				{
					"source" : [ "obj-16", 0 ],
					"destination" : [ "obj-49", 0 ],
					"hidden" : 0,
					"midpoints" : [  ]
				}

			}
, 			{
				"patchline" : 				{
					"source" : [ "obj-18", 0 ],
					"destination" : [ "obj-16", 0 ],
					"hidden" : 0,
					"midpoints" : [  ]
				}

			}
, 			{
				"patchline" : 				{
					"source" : [ "obj-19", 0 ],
					"destination" : [ "obj-16", 0 ],
					"hidden" : 0,
					"midpoints" : [  ]
				}

			}
, 			{
				"patchline" : 				{
					"source" : [ "obj-22", 0 ],
					"destination" : [ "obj-16", 0 ],
					"hidden" : 0,
					"midpoints" : [  ]
				}

			}
, 			{
				"patchline" : 				{
					"source" : [ "obj-21", 0 ],
					"destination" : [ "obj-16", 0 ],
					"hidden" : 0,
					"midpoints" : [  ]
				}

			}
, 			{
				"patchline" : 				{
					"source" : [ "obj-26", 0 ],
					"destination" : [ "obj-16", 0 ],
					"hidden" : 0,
					"midpoints" : [  ]
				}

			}
, 			{
				"patchline" : 				{
					"source" : [ "obj-25", 0 ],
					"destination" : [ "obj-16", 0 ],
					"hidden" : 0,
					"midpoints" : [  ]
				}

			}
, 			{
				"patchline" : 				{
					"source" : [ "obj-24", 0 ],
					"destination" : [ "obj-16", 0 ],
					"hidden" : 0,
					"midpoints" : [  ]
				}

			}
, 			{
				"patchline" : 				{
					"source" : [ "obj-23", 0 ],
					"destination" : [ "obj-16", 0 ],
					"hidden" : 0,
					"midpoints" : [  ]
				}

			}
, 			{
				"patchline" : 				{
					"source" : [ "obj-50", 0 ],
					"destination" : [ "obj-48", 0 ],
					"hidden" : 0,
					"midpoints" : [ 214.5, 329.0, 290.0, 329.0, 290.0, 286.0, 316.5, 286.0 ]
				}

			}
, 			{
				"patchline" : 				{
					"source" : [ "obj-49", 0 ],
					"destination" : [ "obj-50", 0 ],
					"hidden" : 0,
					"midpoints" : [ 315.5, 388.0, 196.0, 388.0, 196.0, 267.0, 214.5, 267.0 ]
				}

			}
, 			{
				"patchline" : 				{
					"source" : [ "obj-49", 0 ],
					"destination" : [ "obj-47", 1 ],
					"hidden" : 0,
					"midpoints" : [  ]
				}

			}
, 			{
				"patchline" : 				{
					"source" : [ "obj-49", 0 ],
					"destination" : [ "obj-47", 0 ],
					"hidden" : 0,
					"midpoints" : [  ]
				}

			}
, 			{
				"patchline" : 				{
					"source" : [ "obj-46", 1 ],
					"destination" : [ "obj-48", 0 ],
					"hidden" : 0,
					"midpoints" : [  ]
				}

			}
, 			{
				"patchline" : 				{
					"source" : [ "obj-46", 0 ],
					"destination" : [ "obj-48", 0 ],
					"hidden" : 0,
					"midpoints" : [  ]
				}

			}
, 			{
				"patchline" : 				{
					"source" : [ "obj-48", 0 ],
					"destination" : [ "obj-49", 0 ],
					"hidden" : 0,
					"midpoints" : [  ]
				}

			}
, 			{
				"patchline" : 				{
					"source" : [ "obj-45", 0 ],
					"destination" : [ "obj-44", 0 ],
					"hidden" : 0,
					"midpoints" : [  ]
				}

			}
 ]
	}

}
